<svg xmlns="http://www.w3.org/2000/svg" id="Layer_1" data-name="Layer 1" viewBox="0 0 1920 652.605"><defs><style>      .cls-1 {        fill: #166daa;      }      .cls-1, .cls-2 {        stroke-width: 0px;      }      .cls-2 {        fill: #df282a;      }    </style></defs><path class="cls-2" d="M1920,394.07c-.999,9.978-2.918,19.744-6.6,29.121-8.921,22.723-24.484,39.523-45.746,51.257-12.725,7.023-26.327,11.632-40.517,14.592-13.824,2.883-27.8,4.237-41.927,4.368-14.11.131-28.173-.533-42.139-2.443-42.295-5.784-81.466-19.937-116.86-44.023-1.729-1.176-3.662-2.123-5.113-4.132,14.462-23.389,28.97-46.859,43.501-70.315.259-.418.796-.663,1.356-1.112,2.22,1.357,4.459,2.72,6.693,4.093,20.801,12.776,42.906,22.546,66.592,28.605,15.058,3.852,30.335,6.11,45.932,5.814,4.776-.091,9.469-.688,14.058-2.022,1.178-.343,2.362-.711,3.479-1.212,8.463-3.794,11.109-10.458,9.494-19.487-.447-2.5-2.023-4.445-3.829-6.178-2.701-2.591-5.908-4.398-9.259-5.991-6.367-3.028-13.029-5.279-19.775-7.243-13.662-3.977-27.391-7.725-41.056-11.692-14.528-4.218-28.793-9.173-42.449-15.747-9.54-4.593-18.592-9.958-26.821-16.665-16.812-13.705-27.084-31.17-30.339-52.637-3.057-20.161-1.698-39.964,5.365-59.205,7.597-20.695,21.079-36.726,39.36-48.853,13.937-9.246,29.273-15.218,45.509-18.933,18.648-4.267,37.542-5.42,56.643-4.54,30.86,1.422,60.6,7.829,89.285,19.209,12.118,4.807,23.756,10.587,34.898,17.355,1.052.639,2.129,1.251,3.113,1.984.557.415.944,1.055.543,1.833-.321.625-.646,1.248-.981,1.866-12.491,23.016-24.983,46.032-37.479,69.045-.497.914-1.04,1.803-1.656,2.866-2.119-.068-3.631-1.396-5.265-2.256-16.53-8.695-33.665-15.893-51.582-21.238-10.301-3.073-20.745-5.528-31.42-6.673-8.39-.901-16.859-1.357-25.217.659-2.929.706-5.715,1.764-8.24,3.407-8.293,5.396-9.243,15.741-2.089,22.546,2.576,2.451,5.61,4.22,8.764,5.806,5.983,3.009,12.246,5.337,18.625,7.311,13.928,4.309,27.921,8.412,41.852,12.71,14.956,4.615,29.676,9.866,43.747,16.795,9.817,4.834,19.149,10.433,27.569,17.457,14.057,11.727,23.815,26.187,28.13,44.124.456,1.896.737,3.783.876,5.714.087,1.208.006,2.49.977,3.459v30.602Z"></path><path class="cls-1" d="M71.652,652.605c-.076-1.872-1.384-3.184-2.238-4.67-8.232-14.333-16.53-28.627-24.809-42.933-.528-.913-.982-1.879-1.595-2.731-1.178-1.637-.938-3.168-.165-4.93,4.52-10.298,8.942-20.64,13.402-30.964,1.464-3.388,2.933-6.773,4.426-10.147.271-.612.423-1.354,1.524-1.664,1.503.365,2.714,1.711,4.091,2.74,7.33,5.479,14.678,10.936,21.903,16.551,2.019,1.569,3.704,1.965,6.209,1.026,15.344-5.75,31.081-10.181,47.134-13.495,13.629-2.814,27.369-4.796,41.238-6.047,18.465-1.666,36.946-1.853,55.413-.65,32.135,2.094,63.454,8.373,93.806,19.243.662.237,1.384.382,1.973.741,2.732,1.665,4.813.648,7.116-1.153,7.068-5.53,14.291-10.861,21.475-16.243,1.387-1.039,2.65-2.305,4.314-2.836,1.113.923,1.44,2.125,1.925,3.243,5.518,12.739,11.042,25.476,16.563,38.214.21.484.346,1.005.601,1.462.951,1.697.918,3.289-.187,4.947-.973,1.459-1.758,3.044-2.638,4.566-8.186,14.156-16.383,28.306-24.549,42.474-.6,1.042-1.526,1.947-1.593,3.257h-1.057c.141-.828-.374-1.312-.977-1.669-2.116-1.252-4.236-2.5-6.391-3.683-36.057-19.789-74.869-29.932-115.744-32.446-18.441-1.134-36.885-.619-55.274,1.692-23.124,2.907-45.58,8.328-67.309,16.753-11.981,4.646-23.536,10.172-34.631,16.647-1.128.658-2.742.947-2.897,2.705h-1.057ZM196.113,595.486c0-.97.063-1.836-.011-2.69-.335-3.85-.698-7.698-1.074-11.545-.29-2.972-.6-5.942-.932-8.91-.117-1.049-.83-1.531-1.823-1.418-1.031.117-2.043.394-3.119.613-.681,4.804,1.003,9.393.841,14.773-1.167-1.012-1.628-1.697-2.107-2.404-2.267-3.347-4.582-6.662-6.84-10.015-.752-1.118-1.672-1.754-3.062-1.608-.699.074-1.406.073-2.108.133-2.41.208-2.809.557-2.599,2.88.616,6.823,1.306,13.64,1.998,20.457.05.491.208,1.112.547,1.406,1.053.914,2.325.525,3.495.257,1.043-.239,1.229-1.164,1.151-2.066-.227-2.624-.517-5.243-.773-7.865-.103-1.049-.261-2.102-.246-3.152.012-.911-.61-1.985.649-2.892,2.892,4.238,5.824,8.357,8.549,12.609,1.214,1.894,2.608,2.75,4.803,2.153.836-.227,1.674-.452,2.661-.718ZM338.881,621.388c5.464-.086,9.923-3.733,11.734-9.594,1.661-5.374.034-9.936-4.746-13.215-2.921-2.004-6.218-3.176-9.579-4.178-2.069-.617-2.451-.491-3.238,1.384-2.569,6.123-5.083,12.268-7.612,18.408-.133.322-.2.67-.313,1-.333.974.022,1.791.836,2.228,4.038,2.167,8.229,3.891,12.917,3.967ZM251.56,584.169c-.001-8.585-5.121-13.416-13.052-12.908-5.726.367-9.888,4.483-11.052,10.93-1.068,5.912,1.499,11.509,6.333,13.81,7.554,3.596,15.895-.572,17.456-8.753.229-1.201.253-2.442.315-3.079ZM165.676,587.345c.195-.381.362-.884.67-1.279,1.927-2.473,2.201-5.155.727-7.857-1.647-3.019-4.577-3.604-7.698-3.411-1.565.097-3.118.461-4.667.754-5.805,1.1-5.843,1.114-4.838,6.975.975,5.691,2.05,11.365,3.065,17.049.21,1.177.673,1.888,2.064,1.72,3.477-.42,3.743-.716,3.217-4.347-.201-1.384-.56-2.744-.764-4.128-.239-1.625.879-2.562,2.557-2.324,1.35.192,2.251.945,2.845,2.078.892,1.704,1.722,3.441,2.558,5.174.425.88,1.123,1.423,2.071,1.261,1.326-.226,2.84.109,4.127-1.33-.977-2.1-1.897-4.36-3.064-6.484-.746-1.358-1.856-2.516-2.87-3.851ZM127.71,596.202l-.138.005c0,2.634.018,5.269-.004,7.903-.031,3.604.955,4.251,4.266,2.795.73-.321,1.094-.901,1.158-1.609.111-1.222.074-2.457.155-3.682.047-.7.193-1.39.946-1.741,1.771-.826,3.643-1.477,5.579-1.266,1.586.172,1.88,1.934,2.726,3.008.216.275.368.598.569.886.545.778,1.244,1.201,2.237.947.681-.175,1.374-.308,2.051-.496,1.687-.469,2.044-1.189,1.194-2.634-1.246-2.12-2.567-4.196-3.862-6.287-2.591-4.182-5.193-8.357-7.775-12.544-.732-1.187-1.648-1.721-3.074-1.227-.993.344-2.035.551-3.063.787-1.361.313-2.114,1.07-2.193,2.533-.227,4.209-.511,8.416-.772,12.623ZM320.564,614.7c.69-1.133.405-2.39.429-3.59.117-5.799.176-11.599.277-17.398.099-5.689.189-4.603-4.818-6.42-1.55-.563-2.676-.054-3.608,1.291-2.504,3.611-5.078,7.174-7.622,10.758-1.925,2.713-3.844,5.429-5.793,8.182.641.525.989.966,1.443,1.159,3.338,1.417,3.69,1.461,5.572-1.462,1.846-2.867,2.801-2.491,5.241-1.713,3.274,1.045,3.274,1.055,3.372,4.313.016.526.02,1.057-.026,1.581-.131,1.48.67,2.249,1.96,2.708,1.158.412,2.29.924,3.573.588ZM112.235,602.56c2.006-1.833,4.591-1.962,6.81-2.933,1.106-.484,1.38-1.245.907-2.595-.464-1.326-1.081-2.358-2.591-1.745-1.457.591-2.986,1.015-4.5,1.456-2.249.654-2.642.424-3.407-1.836-.629-1.86-.542-2.185,1.104-2.806,1.966-.741,3.985-1.342,5.949-2.086,1.163-.441,1.285-1.286.608-3.106-.516-1.386-.971-1.685-2.331-1.242-3.499,1.14-6.988,2.313-10.46,3.533-2.247.79-2.5,1.253-1.772,3.464,2.08,6.318,4.196,12.624,6.351,18.917.71,2.074,1.257,2.276,3.592,1.52,3.167-1.025,6.318-2.103,9.473-3.165.498-.168.994-.349,1.474-.564,1.16-.518,1.395-1.493.771-3.096-.464-1.192-1.166-1.578-2.465-1.183-2.011.613-3.984,1.346-5.995,1.957-1.566.476-2.185.137-2.749-1.492-.337-.973-.519-1.999-.77-2.999ZM290.925,590.088c-.062-.629-.123-.812-.09-.977.928-4.576,1.158-4.067,4.642-3.092,1.351.378,2.712.728,4.084,1.02,1.257.267,1.947-.228,2.298-1.518.451-1.657.151-2.605-1.17-2.97-3.719-1.027-7.455-2.001-11.205-2.912-1.817-.441-2.136-.264-2.624,1.563-1.81,6.772-3.533,13.567-5.332,20.341-.33,1.242-.062,2.075,1.201,2.411,4.07,1.083,8.141,2.162,12.229,3.175,1.275.316,1.916-.333,2.384-2.118.357-1.36.087-1.996-1.239-2.391-2.185-.651-4.402-1.193-6.602-1.794-1.003-.274-1.391-.972-1.244-1.97.205-1.387.392-2.788,1.654-3.918.922.196,1.931.387,2.927.627,1.194.288,2.369.658,3.567.922,1.316.29,2.004-.152,2.35-1.398.47-1.694.197-2.633-1.067-3.037-2.164-.691-4.363-1.273-6.763-1.963ZM212.74,585.202c-.052,0-.103,0-.155,0,0,2.797-.012,5.594.005,8.391.007,1.222.605,1.945,1.883,1.999.35.015.7.028,1.05.028,2.431.003,2.854-.314,2.899-2.573.08-4.02.029-8.043.121-12.063.039-1.716-.628-3.714.568-5.072,1.084-1.231,2.973-.458,4.499-.63,1.463-.165,1.965-.795,1.969-2.501.004-1.656-.515-2.35-2.047-2.373-5.077-.076-10.155-.085-15.232-.111-.347-.002-.703.037-1.04.117-.763.181-1.12.714-1.224,1.47-.298,2.153.284,3.024,2.243,3.226.869.09,1.751.049,2.622.125,1.261.111,1.831.886,1.836,2.1.011,2.622.003,5.244.003,7.867ZM278.089,598.03c-2.192-.487-3.893-.889-5.604-1.241-3.849-.793-3.918-.808-3.194-4.889.797-4.493,1.728-8.963,2.571-13.448.455-2.42.34-2.543-2.241-3.039-.173-.033-.345-.071-.518-.1-2.06-.339-2.485-.09-2.885,1.93-.784,3.961-1.595,7.918-2.25,11.901-.56,3.403-2,6.69-1.441,10.25,3.204,1.604,6.83,1.437,10.188,2.408,1.006.291,2.08.349,3.121.517,1.418.229,1.858-.625,1.997-1.802.081-.69.144-1.381.257-2.486ZM95.128,614.469c-1.932-4.74-3.706-9.095-5.481-13.451-.527-1.295-1.012-2.608-1.592-3.879-.387-.848-.983-1.337-2.066-.994-3.605,1.144-3.862,1.609-2.48,5.127,1.023,2.603,2.08,5.192,3.125,7.787,1.372,3.405,2.745,6.809,4.119,10.214.44,1.091,1.112,1.8,2.393,1.279,3.889-1.581,7.786-3.147,11.647-4.794,1.365-.582.813-1.764.514-2.724-.446-1.428-1.187-1.966-2.227-1.592-2.465.886-4.899,1.858-7.953,3.027Z"></path><path class="cls-2" d="M1356.68,190.886c2.023-2.22,3.193-3.458,4.312-4.742,6.95-7.975,14.366-15.469,22.651-22.082,16.464-13.143,35.128-21.355,55.986-24.148,55.829-7.476,105.862,16.229,136.845,59.043,14.015,19.367,23.168,40.894,28.632,64.076,4.507,19.121,5.915,38.518,5.576,58.11-.389,22.482-3.773,44.451-10.943,65.783-7.25,21.573-18.004,41.208-33.179,58.279-21.253,23.909-47.508,39.354-78.941,45.67-14.942,3.003-30.045,3.249-45.21,1.531-18.102-2.051-34.995-7.528-50.566-17.013-11.367-6.923-21.245-15.61-30.268-25.328-1.291-1.391-2.337-3.056-3.99-4.003-.992.301-.883,1.049-.891,1.719-.018,1.583-.014,3.166-.014,4.748,0,50.65,0,101.3,0,151.95,0,1.583.032,3.167-.023,4.748-.069,2.01-.377,2.279-2.578,2.367-1.055.042-2.113.017-3.17.017-35.93,0-71.859.011-107.789-.009-6.677-.004-5.925.712-5.926-5.877-.011-151.246-.012-302.493.002-453.739,0-6.652-.842-5.886,5.873-5.89,35.93-.02,71.86-.018,107.79-.002,6.651.003,5.783-.688,5.809,5.975.041,10.728.011,21.456.011,32.184v6.632ZM1493.115,315.963c.221-11.585-1.586-23.188-6.414-34.1-11.575-26.159-31.221-41.408-60.298-43.255-13.346-.848-25.836,2.34-37.253,9.324-15.887,9.719-25.878,23.939-31.336,41.53-3.596,11.59-4.172,23.482-3.221,35.465,1.162,14.647,5.746,28.166,14.31,40.189,16.13,22.646,42.595,33.137,70.551,26.544,20.565-4.849,35.347-17.46,44.862-36.174,6.245-12.283,8.896-25.451,8.8-39.525Z"></path><path class="cls-2" d="M485.435,146.087h5.942c35.923,0,71.845-.009,107.768.008,6.568.003,5.865-.745,5.882,5.938.027,10.726.007,21.451.007,32.177,0,1.747,0,3.493,0,5.135,1.732.7,2.037-.698,2.624-1.379,7.365-8.546,15.183-16.621,24.005-23.701,16.279-13.065,34.756-21.182,55.379-24.241,12.407-1.84,24.879-1.953,37.38-.504,34.043,3.945,62.793,18.536,86.55,42.978,17.463,17.967,29.516,39.252,37.423,62.932,5.199,15.57,8.29,31.558,9.761,47.909,1.012,11.242,1.177,22.488.669,33.723-1.366,30.198-7.846,59.157-22.01,86.105-13.123,24.966-31.269,45.351-55.502,60.111-15.66,9.539-32.566,15.839-50.687,18.478-25.159,3.663-49.834,1.802-73.627-7.834-15.219-6.163-28.44-15.326-40.138-26.744-3.145-3.07-6.103-6.333-9.153-9.5-.572-.594-1.176-1.155-1.627-1.595-1.273.448-.991,1.274-1.017,1.894-.068,1.58-.031,3.164-.031,4.746,0,50.991.004,101.982-.006,152.974-.001,6.505.656,5.907-5.971,5.909-35.923.01-71.845.013-107.768-.003-6.606-.003-5.843.653-5.844-6.001-.014-151.215-.011-302.43-.011-453.645v-5.872ZM671.863,393.614c7.42-.322,14.371-1.115,21.105-3.412,20.45-6.974,34.15-20.94,42.294-40.638,3.312-8.011,5.037-16.409,5.81-25.038,1.39-15.515-.341-30.629-7.009-44.755-11.838-25.077-31.382-39.567-59.565-41.158-15.476-.873-29.564,3.435-42.045,12.647-13.841,10.217-22.504,23.981-26.976,40.416-3.217,11.823-3.878,23.861-2.357,36.041,1.868,14.963,6.879,28.669,16.392,40.473,13.509,16.764,31.173,25.168,52.351,25.422Z"></path><path class="cls-2" d="M1208.646,215.273c-3.035,2.277-5.695,4.289-8.372,6.279-22.734,16.898-45.471,33.791-68.208,50.685-.988.734-1.984,1.458-2.971,2.195-.838.626-1.648.574-2.301-.218-1.118-1.356-2.161-2.773-3.256-4.149-5.281-6.635-11.119-12.706-18.019-17.697-10.7-7.739-22.683-11.766-35.85-12.455-9.413-.492-18.623.302-27.495,3.753-13.053,5.078-23.303,13.605-31.072,25.16-7.301,10.858-11.452,22.851-12.961,35.83-1.842,15.841-.176,31.246,5.743,46.069,5.847,14.642,15.245,26.435,29.05,34.413,11.128,6.431,23.207,8.781,35.987,8.34,18.058-.623,33.388-7.581,46.718-19.453,4.212-3.751,8.194-7.722,11.921-11.951.698-.792,1.391-1.588,2.12-2.351.871-.912,1.819-.881,2.796-.144.702.529,1.413,1.046,2.125,1.561,24.233,17.529,48.467,35.056,72.696,52.591.85.615,1.689,1.257,2.452,1.973.373.35.51.912.214,1.438-.258.458-.518.917-.818,1.348-15.453,22.273-34.235,40.989-58.153,54.204-15.36,8.486-31.732,14.142-48.947,17.468-15.266,2.949-30.682,4.344-46.206,3.957-43.208-1.079-81.793-14.748-114.559-43.259-29.063-25.289-47.524-57.011-55.996-94.559-3.782-16.763-4.98-33.745-3.913-50.835,4.684-75.038,53.449-135.417,122.347-157.255,15.664-4.965,31.711-7.779,48.142-8.696,13.416-.749,26.771-.308,40.053,1.428,29.525,3.859,56.535,14.03,80.056,32.65,13.931,11.028,25.504,24.177,35.207,39.007.476.728.844,1.527,1.47,2.673Z"></path><path class="cls-1" d="M917.109,522.883c92.983,0,185.966-.009,278.948.016,7.928.002,7.058-1.135,7.068,6.944.029,23.739.01,47.478.01,71.217,0,.703.007,1.407-.001,2.11q-.05,4.612-4.692,4.668c-.88.01-1.761.002-2.641.002-186.142,0-372.284,0-558.425-.006-1.933,0-3.868-.052-5.798-.156-.766-.041-1.287-.58-1.385-1.348-.111-.867-.15-1.748-.151-2.623-.008-25.497-.007-50.995-.002-76.492,0-.877.025-1.757.096-2.631.082-1.011.672-1.616,1.687-1.648,1.759-.056,3.521-.049,5.282-.049,93.335-.002,186.67-.002,280.005-.002Z"></path><path class="cls-2" d="M224.265,209.66c0-31.298-.002-62.596.002-93.893,0-6.259-.436-5.867,5.639-5.557,14.134.722,27.867,3.585,41.324,7.899,18.739,6.008,37.54,11.812,56.58,16.809,18.797,4.933,37.88,7.891,57.348,7.832,11.286-.034,22.479-1.242,33.533-3.591.688-.146,1.373-.314,2.068-.41,1.333-.184,1.925.186,2.174,1.62.54,3.115,1.016,6.242,1.448,9.374,3.468,25.128,5.078,50.369,4.217,75.73-.915,26.942-4.319,53.576-10.517,79.833-.242,1.025-.578,2.029-.824,3.053-.25,1.039-1.002,1.362-1.933,1.392-1.407.045-2.816.047-4.224.047-60.223.002-120.446.002-180.669.002-1.057,0-2.114.023-3.169-.009-2.705-.083-2.908-.285-2.986-3.073-.039-1.406-.01-2.813-.01-4.22,0-30.946,0-61.892,0-92.838ZM321.804,282.952v-.04c7.743,0,15.485,0,23.228,0,8.975,0,17.949-.005,26.923,0,1.939.001,3.881.023,5.74-.642,3.905-1.395,5.067-5.06,2.537-8.241-2.407-3.026-4.886-5.997-7.407-8.929-1.449-1.685-2.133-3.51-2.084-5.764.108-4.918.064-9.839.031-14.759-.022-3.426-.181-3.545-3.532-3.486-.352.006-.705.002-1.055.027-1.015.07-1.632.587-1.643,1.632-.038,3.689.021,7.38-.09,11.067-.104,3.455-1.322,4.633-4.812,4.936-.699.061-1.407.031-2.111.031-23.932.001-47.864.014-71.796-.008-6.26-.006-7.113-.839-7.125-6.876-.027-13.705-.011-27.411-.004-41.116,0-1.053-.016-2.116.12-3.156.255-1.953,1.461-3.192,3.417-3.409,1.393-.155,2.811-.101,4.218-.102,11.614-.006,23.228-.002,34.842-.006,1.407,0,2.815-.004,4.221-.051.991-.033,1.619-.491,1.661-1.582.054-1.416-.415-2.238-1.472-2.36-.696-.08-1.403-.097-2.104-.097-14.782-.005-29.563-.007-44.345.004-1.052,0-2.127-.011-3.153.184-2.149.409-3.388,1.752-3.601,3.955-.152,1.569-.105,3.159-.106,4.74-.012,16.341-.068,32.682.022,49.023.017,3.161-.671,5.792-2.884,8.146-2.525,2.686-4.82,5.59-7.175,8.432-1.546,1.866-1.573,2.743-.395,4.737.935,1.582,2.236,2.624,4.027,3.165,2.072.626,4.174.543,6.281.543,16.541.003,33.082.002,49.624.002ZM392.674,193.021c.01,0,.019,0,.029,0,0-3.333.037-6.667-.015-9.999-.027-1.721-.434-2.121-2.251-2.131-6.324-.036-12.65-.044-18.974.014-1.853.017-2.649.756-2.666,2.518-.06,6.315-.018,12.63-.014,18.945,0,1.252.642,2.028,1.874,2.036,6.675.04,13.351.036,20.027.012,1.203-.004,1.976-.645,1.984-1.923.02-3.157.006-6.315.006-9.472ZM361.509,226.291h.036c0,2.627-.013,5.253.007,7.88.008,1.038.648,1.673,1.62,1.679,5.261.034,10.522.021,15.783-.034,1.013-.01,1.588-.779,1.599-1.732.058-5.074.095-10.15.045-15.224-.011-1.152-.778-1.967-2.024-1.975-5.086-.035-10.172-.043-15.258-.028-1.33.004-1.798.884-1.804,2.077-.012,2.452-.004,4.904-.004,7.357ZM357.535,213.517c0-.014,0-.028,0-.043,2.103,0,4.206.025,6.309-.01,1.046-.017,1.58-.692,1.588-1.675.034-4.026.057-8.052.009-12.078-.015-1.237-.846-1.879-2.063-1.882-4.031-.008-8.063-.002-12.093.048-1.035.013-1.537.711-1.542,1.706-.018,4.026-.025,8.052-.01,12.079.005,1.302.796,1.845,2.018,1.852,1.929.012,3.857.003,5.786.003ZM351.964,239.848c6.564-.042,5.94.635,5.976-5.893.003-.527.01-1.054-.002-1.58-.075-3.45-.15-3.527-3.548-3.621-.527-.015-1.055-.004-1.583-.007-6.104-.029-6.083-.029-6.091,6.012-.007,5.397-.13,5.109,5.248,5.089ZM363.422,188.065h.006c0-1.047.044-2.097-.01-3.142-.093-1.811-.669-2.427-2.594-2.506-2.093-.086-4.194-.038-6.29.017-1.169.031-2.073.601-2.088,1.861-.031,2.614.023,5.23.118,7.843.027.744.571,1.318,1.345,1.339,2.446.066,4.895.109,7.34.052,1.554-.036,2.071-.65,2.163-2.322.057-1.044.011-2.094.011-3.142ZM343.243,208.777c-.064-6.524.721-6.13-5.698-6.128-5.45.002-5.141-.33-5.12,5.101.026,6.585-.627,5.755,5.942,5.802,5.132.037,4.884.297,4.876-4.776ZM347.555,222.224c0-1.393.03-2.787-.012-4.179-.024-.788-.495-1.316-1.298-1.328-2.615-.039-5.232-.052-7.847-.019-1.048.013-1.494.717-1.521,1.701-.029,1.045-.053,2.091-.041,3.136.081,6.581-.815,5.804,5.841,5.833,5.452.024,4.926.459,4.877-5.144ZM333.03,241.15q5.564-.015,5.562-4.577c0-.699.022-1.4-.014-2.098-.111-2.148-.417-2.518-2.43-2.582-1.747-.056-3.501-.013-5.248.062-.741.032-1.44.49-1.477,1.236-.111,2.264-.116,4.535-.075,6.803.009.481.385.986.994,1.026,1.219.081,2.441.12,2.689.131ZM329.381,225.028h.006c0-.698.001-1.397,0-2.095,0-.174-.004-.349-.018-.523-.127-1.644-.545-2.066-2.279-2.158-1.046-.055-2.097-.039-3.146-.025-3.797.05-3.867.062-3.853,3.752.024,6.077-.783,5.436,5.686,5.482.35.002.7.008,1.049-.007,2.242-.096,2.464-.292,2.55-2.331.03-.697.005-1.396.005-2.094ZM314.246,237.535c.018,0,.036,0,.054,0,0,1.046-.036,2.093.01,3.137.046,1.059.748,1.515,1.72,1.526,1.921.023,3.843.01,5.763-.031,1.06-.023,1.495-.697,1.535-1.687.014-.349.032-.698.029-1.046-.072-7.139.881-6.347-6.476-6.351-2.113-.001-2.512.442-2.628,2.359-.042.695-.007,1.395-.007,2.093Z"></path><path class="cls-2" d="M204.574,209.926c0,31.114,0,62.228-.002,93.341,0,1.581-.02,3.163-.054,4.744-.022,1.025-.6,1.639-1.592,1.714-1.226.091-2.461.073-3.692.073-60.735.003-121.47.004-182.205,0-5.151,0-5.209-.004-6.378-5.235-3.412-15.265-6.183-30.634-7.899-46.197C.9,241.575-.172,224.749.023,207.86c.241-20.937,1.875-41.77,5.082-62.47.188-1.212.473-2.412.767-3.604.653-2.653.665-2.632,3.526-2.316,8.04.888,16.02,2.247,24.099,2.865,8.096.62,16.157.528,24.256.032,21.052-1.287,41.25-6.655,61.332-12.562,15.163-4.461,30.225-9.265,45.392-13.711,11.507-3.373,23.28-5.398,35.285-5.926,1.054-.046,2.115-.101,3.166-.035,1.002.062,1.57.68,1.591,1.709.031,1.581.053,3.163.053,4.744.003,31.114.002,62.228.002,93.341ZM80.11,259.025c-.15.856-.139,1.781-.478,2.554-1.128,2.568.014,4.367,1.844,5.967,1.005.879,2.035,1.004,3.35.398,3.947-1.817,5.837-5.467,3.907-9.887-.548-1.254-1.223-1.939-2.532-2.299-2.137-.587-3.75-.185-4.871,1.836-.323.583-.874,1.04-1.32,1.555.068-.859.193-1.718.191-2.576-.005-1.841-.794-3.547-2.193-4.496-1.521-1.032-3.453-1.684-5.329-.394.674-1.487,1.484-2.866,3.381-2.836,2.014.032,4.134.523,4.886,2.472,1.115,2.89,2.823,3.609,5.681,2.9,1.173-.291,2.406.37,3.39,1.162.835.672,1.548,1.5,1.611,2.608.088,1.57-.132,3.17.084,4.716.257,1.84,3.164,1.597,3.231,3.737-1.364-.159-2.602-1.022-4.101-.485-1.792.642-2.566,1.692-2.321,3.554.403,3.055,4.079,5.762,7.359,5.257,1.651-.254,3.847-.238,4.433-2.02.431-1.311-1.806-1.905-2.308-3.224,2.392.345,3.899,2.232,5.843,3.356,2.332,1.348,5.138,1.217,7.356-.403,1.001-.732,1.194-1.895.284-2.63-2.724-2.202-5.51-4.328-8.272-6.483l-.099.089c1.763-.6,3.051.396,4.317,1.338,2.39,1.779,4.764,3.58,7.101,5.428,2.295,1.815,4.702,1.091,6.976.197,1.722-.677,2.227-3.477.991-4.922-1.592-1.861-3.375-3.557-5.006-5.386-.431-.483-1.533-.88-.618-2.048,2.163,1.895,4.236,3.78,6.383,5.577,3.781,3.164,8.325,1.884,10.062-2.712,1.085-2.871.535-5.444-.901-8.025-.61-1.096-2.259-1.798-1.522-3.489l-.084.119c1.689.165,2.722,1.497,4.059,2.285,1.512.891,2.936,1.971,4.528,2.677,2.627,1.165,5.492.853,7.307-2.088,1.693-2.743,1.956-6.066-.085-8.852-2.174-2.968-4.494-5.835-7.646-7.925-10.843-7.187-21.657-14.418-32.446-21.685-1.697-1.143-3.438-1.495-5.453-1.467-3.849.052-7.093,1.795-10.44,3.306.296-1.352,1.4-1.931,2.457-2.547,1.685-.982,3.592-1.366,5.399-2.021,3.635-1.319,6.716-.695,9.895,1.515,8.651,6.014,17.437,11.835,26.219,17.659,5.59,3.707,10.959,7.627,14.642,13.395.659-.287,1.23-.39,1.597-.719,4.041-3.628,7.793-7.614,12.84-9.963.669-.312.844-1.087.558-1.826-.887-2.289-1.772-4.58-2.696-6.854-2.513-6.186-5.338-12.22-8.929-17.868-1.322-2.079-2.729-4.106-4.811-5.523-.87-.592-1.769-1.105-2.931-.641-3.612,1.44-7.263.74-10.899.093-7.258-1.292-14.544-2.455-21.754-3.973-3.442-.725-6.598-.343-9.791.812-3.134,1.133-6.221,2.447-9.428,3.316-4.196,1.138-7.727,3.239-10.817,6.217-.883.851-1.83,1.651-2.829,2.359-.351.249-.95.15-1.435.209-.058-.166-.087-.456-.18-.478-2.847-.679-5.692-1.365-8.556-1.964-.697-.146-1.432.168-1.74.881-.414.961-.761,1.958-1.04,2.966-2.155,7.779-3.775,15.68-5.346,23.591-.41,2.064-.769,4.139-1.231,6.19-.404,1.792.209,3.021,1.734,3.991,1.181.751,2.244,1.685,3.36,2.538.451.345.624.776.41,1.327-.956.193-1.615-.464-2.387-.816-.991-.452-1.643-.151-1.87.95-.175.85-.571,1.716-.5,2.543.182,2.113.714,4.117,2.927,5.129,1.97.901,3.73.414,5.376-.78,1.04-.754,1.093-2.181.235-3.147-1.238-1.393-3.251-2.029-3.899-3.992,1.635-.567,2.406.889,3.492,1.541,1.289.774,2.326,2.074,4.087,1.676-1.624,2.083-2.803,4.368-3.117,7.025-.234,1.977,1.389,4.358,3.515,5.221,1.605.652,3.5-.154,4.886-1.989.695-.921.64-2.384,2.029-2.804ZM53.495,242.392c.007-.038.014-.076.021-.114.515.11,1.036.197,1.544.334,1.392.377,1.907-.41,2.129-1.581.458-2.409.803-4.844,1.375-7.225,1.966-8.174,4.01-16.329,6.029-24.49.21-.85.511-1.68.674-2.537.309-1.618.007-2.185-1.578-2.747-2.807-.996-5.623-1.972-8.467-2.854-1.363-.423-2.292-.5-2.997,1.816-3.571,11.729-7.243,23.428-10.863,35.143-.426,1.38-.122,1.992,1.27,2.267,3.61.715,7.24,1.332,10.862,1.988ZM177.569,230.102c-.141-.621-.204-1.15-.382-1.637-3.413-9.397-7.112-18.672-12.338-27.244-1.272-2.086-2.763-4.055-4.304-5.956-1.316-1.623-1.754-1.67-3.586-.885-2.577,1.104-5.133,2.257-7.674,3.443-1.279.597-1.382,1.403-.139,2.335,5.254,3.936,8.325,9.401,10.837,15.25,1.52,3.539,2.85,7.16,4.344,10.711,1.066,2.532,1.148,5.494,3.288,7.558,3.046-.066,5.719-1.565,8.61-2.23.168-.039.386-.065.482-.179.322-.384.599-.805.86-1.166Z"></path><path class="cls-2" d="M226.229,546.829c-.638-1.92-.328-3.841-.329-5.711-.025-31.99-.018-63.981-.018-95.971,0-36.033-.008-72.066.008-108.099.003-6.402-.725-5.901,5.988-5.902,58.442-.005,116.884-.004,175.327,0,1.407,0,2.822-.038,4.216.109.705.074,1.258.604,1.007,1.489-.864,3.04-1.68,6.094-2.61,9.114-10.722,34.813-25.611,67.669-46.657,97.528-33.753,47.887-77.426,83.55-131.82,105.853-1.597.655-3.11,1.608-5.111,1.589ZM360.361,433.088c.319.365.464.477.538.625.929,1.847.853,1.785,1.813.669,1.455-1.692,2.133-3.561,1.97-5.804-.219-3.013-.044-6.168,1.228-8.794,1.398-2.885,1.417-5.723,1.424-8.685.013-5.801.001-11.601.005-17.402.001-2.439.336-4.956-2.045-6.703-.355-.26-.637-.964-.566-1.4.441-2.706-.97-4.643-2.442-6.653-1.164-1.591-1.489-3.569-1.703-5.488-.194-1.74-.21-3.509-.166-5.262.038-1.515-.558-2.468-1.647-3.586-4.809-4.934-8.078-10.608-7.453-17.865.115-1.335.016-2.689.016-4.034-.353,1.227-.443,2.462-.339,3.68.582,6.81-2.57,12.193-6.533,17.279-.465.596-1.11,1.051-1.793.79-.698-.268-.626-1.121-.768-1.794-.128-.608.463-1.423-.539-1.867,0,4.567.073,9.085-.03,13.6-.053,2.317-.603,4.537-2.817,5.871-1.408-.838-.516-2.506-1.349-4.146.09,1.152.205,1.674.158,2.18-.342,3.732.959,7.771-2.145,11.01-.385.402-.273,1.346-.275,2.039-.016,7.91-.026,15.82.013,23.73.004.845.114,1.824.545,2.507,1.695,2.685,1.782,5.666,1.793,8.652.031,8.613.01,17.226-.028,25.839-.004.972.335,2.078-.711,2.928-.786.088-1.126-.626-1.546-1.092-2.957-3.281-5.214-7.05-7.554-10.771-1.652-2.627-2.382-5.321-2.234-8.462.247-5.267.102-10.55-1.258-15.707-.107-.405-.18-.679-.283-.607-.244,1.143-.581,2.717-.906,4.236-1.056.013-1.481-.624-1.878-1.163-2.146-2.92-1.779-6.74-3.519-9.912-1.826,1.976-1.438,4.681-2.407,6.907-.978,2.246-1.813,4.553-2.713,6.838-1.143-.764-.315-2.444-1.717-3.182-1.184,1.714-.859,3.717-1.083,5.581-.416,3.455-.381,3.493-3.832,3.21-1.927-.158-3.841-.472-5.765-.674-1.584-.167-3.114-.345-4.412-1.469-1.333-1.155-2.691-1.238-4.279-.128-1.186.829-2.76.327-4.134.159-4.712-.577-9.414-1.244-14.115-1.908-.863-.122-1.726-.331-2.554-.604-1.917-.631-2.4-1.032-2.219-3.003.446-4.872-.991-9.52-1.192-14.833-1.403,2.205-.578,4.666-2.554,6.182-2.785-3.644-2.706-8.146-4.094-12.48-1.307,2.944-2.769,5.508-2.712,8.604.016.875-.39,1.64-1.096,2.291-.864.798-1.528.699-2.622-.625-2.038,4.982-1.754,10.243-1.535,15.411.211,4.978-1.64,8.769-5.048,12.193-5.217,5.243-10.469,10.422-16.504,14.748-1.808,1.296-1.82,1.4-.382,3.927.345.606.203.949-.043,1.351-.269.44-.72.77-.977,1.214-.155.268-.228.884-.104.959.409.248.964.515,1.393.428,2.028-.41,3.236-2.14,4.559-3.422,2.95-2.859,6.918-4.877,8.259-9.206.133-.43.61-1.026.979-1.065,1.654-.176,2.328-1.331,3.072-2.566.537-.891,1.192-1.813,2.022-2.4.931-.659,1.076-2.28,2.817-2.172-.15,6.885-.144,13.735-.489,20.567-.422,8.351,1.24,7.466-7.863,7.384-4.04-.036-8.08-.264-12.119-.24-2.909.017-3.521.9-2.503,3.55.383.998.998,1.642.033,2.724-.849.952-.469,2.361-.47,3.575-.012,20.039-.014,40.078.008,60.117.001.967-.347,2.078.878,3.004.846-.297,1.841-.588,2.792-.987,41.766-17.516,77.355-43.563,107.304-77.419,1.38-1.56,1.624-3.01,1.543-5.108-.292-7.547-.129-15.113-.11-22.671.003-1.272.141-2.543.216-3.814.646,1.058.646,2.088.646,3.119.004,6.152.002,12.305.017,18.457.004,1.404.018,2.813.135,4.211.035.416.146.999.915.985.688-.013.905-.491,1.157-.908.871-1.438.657-3.063.664-4.628.031-6.328.002-12.656.048-18.984.006-.758-.385-1.787,1.018-2.282,0,1.128,0,2.143,0,3.157,0,4.922-.002,9.844.003,14.766.001,1.054-.025,2.113.074,3.16.042.442.395,1.229.568,1.218.72-.044,1.372-.508,1.501-1.243.212-1.199.344-2.427.354-3.644.037-4.57-.011-9.141.022-13.711.009-1.26-.25-2.581.901-4.942,0,4.153-.056,7.121.016,10.086.074,3.065-.376,6.171.342,9.419,2.415-2.17,2.493-2.168,2.536-4.525.073-4.042.016-8.086.073-12.128.008-.565-.428-1.468,1.07-1.704v13.278c2.141-1.515,2.248-1.544,2.271-2.286.081-2.634.062-5.271.173-7.903.041-.966-.442-2.086.968-3.223v9.111c3.397-2.222,2.717-5.281,3.323-8.243Z"></path><path class="cls-2" d="M16.625,331.574c1.34-.749,2.778-.414,4.156-.415,58.996-.018,117.991-.015,176.987-.015.528,0,1.057-.008,1.585.005,3.373.087,3.469.181,3.539,3.615.022,1.055.004,2.11.004,3.165,0,67.525.004,135.05-.014,202.575,0,2.067.302,4.174-.37,6.312-2.469-.096-4.453-1.337-6.515-2.203-55.6-23.345-99.984-60.264-133.576-110.211-20.487-30.462-35.283-63.532-45.318-98.776-.371-1.304-1.058-2.62-.478-4.054ZM76.603,372.146c.342-.397.627-.782-.208-.912.1.284.2.568.3.853.556,1.057-.495,2.45.793,3.405.612.453.542,1.303.252,1.954-1.582,3.555-2.552,7.284-3.33,11.079-.151.734-.733,1.259-1.492,1.232-1.144-.04-1.32-.94-1.332-1.857-.057-4.571-.141-9.142-.131-13.712.003-1.536-.572-3.244.574-4.565,1.06-1.223,2.671-.438,4.01-.727,1.742-.377,2.305-1.239,1.646-3.057-.938-2.59-1.862-5.204-4.019-7.649-1.671,2.569-3.305,4.983-4.822,7.469-.471.772-.479,1.909.409,2.343,1.837.897,1.764,2.416,1.732,4.03-.097,4.922-.154,9.845-.255,14.766-.025,1.196.247,2.516-.951,3.383-1.224.886-1.182,1.772-.535,3.134,1.205,2.541.899,5.01-1.09,7.224-1.715,1.909-2.056,4.444-2.42,6.833-.273,1.79.515,3.468,2.175,4.498.586.364,1.658.638,1.453,1.295-.866,2.771,1.53,3.012,2.914,4.047.259.194.604.301.803.537.283.334.1.612-.199.918-.542.555-.692,1.346-.191,1.908,1.591,1.784,1.317,3.913,1.291,6.006-.056,4.571.081,9.157-.262,13.707-.258,3.425.899,6.028,2.963,8.616,4.936,6.191,9.903,12.351,15.201,18.238,29.038,32.262,63.55,56.881,103.508,73.894,1.275.543,2.481,1.308,4,1.189.804-1.665.439-3.437.441-5.151.026-22.505.017-45.009.017-67.514,0-1.055.075-2.119-.038-3.162-.092-.847-.248-1.764-.664-2.484-1.925-3.335-6.079-5.509-10.288-5.484-.964.006-1.772-.166-1.836-1.314-.072-1.286-.719-2.326-1.303-3.409-2.38-4.412-2.531-5.03-3.105-11.274-.101-1.094-.631-1.977-1.619-2.52-.773.634-.846,1.478-.805,2.386.076,1.701-.75,3.036-1.881,4.195-.143.147-.739.093-.901-.078-.206-.218-.19-.65-.256-.993-.735-3.803,1.928-7.006,1.906-10.737-.007-1.266,1.004-2.586,1.704-3.792.554-.955,1.243-2.051.532-2.913-1.792-2.173-2.199-5.058-3.892-7.199-1.224-1.547-2.537-2.887-2.208-5.077.07-.468-.098-1.13-.409-1.473-2.303-2.541-2.59-5.642-2.641-8.841-.008-.505-.298-1.238-.849-1.113-3.42.779-3.462-2.101-4.268-3.971-.69-1.599-.951-3.378-1.492-5.048-1.41-4.352-2.959-8.648-5.553-12.477-1.313-1.937-3.66-3.545-1.927-6.44.182-.305-.163-1.03-.418-1.471-1.51-2.618-2.327-5.412-2.34-8.441-.002-.415-.362-.635-.754-.424-.24.129-.384.499-.497.789-.158.406-.111.943-.906.977-.925-2.622-1.728-5.263-.698-8.088.256-.701.427-1.568-.187-1.938-2.613-1.573-2.654-3.718-1.73-6.242.154-.421-.182-1.012-.266-1.529-.607-3.764-1.208-7.528-1.826-11.391-.432.345-.918.54-.943.782-.353,3.495-2.216,6.509-3.216,9.797-.549,1.806-1.028,3.137.036,4.851.643,1.036.108,1.969-1.122,2.449-.798.311-1.707.65-2.238,1.261-.895,1.032.33,1.888.556,2.843.113.478.078,1.034-.045,1.515-.216.848-.488,1.696-.856,2.489-.304.655.084,1.684-.876,2.014-.668-.468-.585-1.539-1.439-1.511-.889.03-1.027.821-.975,1.522.151,2.043-.34,3.66-2.071,5.06-1.007.815-2.013,2.353-1.999,3.554.03,2.507-1.565,3.781-2.97,5.288-6.997,7.51-11.798,16.13-13.458,26.358-.076.47-.182,1.099-1.065.877-1.017-1.258-.514-2.954-1.017-4.398-.147-.423-.357-.654-.727-.518-.3.11-.784.299-.808.497-.295,2.497-1.939,4.465-2.62,6.798-.671,2.298-3.393,3.557-3.162,6.297-2.853,2.584-3.898,6.555-6.959,8.996-1.184.944-1.307,1.941.175,2.878.309.196.532,1.211.344,1.399-1.275,1.276-.628,2.348-.163,3.783,1.325,4.09.792,8.28-.149,12.404-.062.271-.438.566-.728.656-.183.057-.673-.226-.692-.394-.191-1.728-1.533-3.174-1.205-5.025.276-1.554-.529-2.691-1.529-3.737-1.353.586-1.531,1.876-1.691,3.069-.391,2.919-1.771,5.17-4.129,6.923-1.755,1.305-2.895,3.055-3.128,5.294-.131,1.261-.509,2.401-1.533,3.233-.123.1-.338.23-.438.186-.283-.126-.736-.315-.756-.515-.102-1.041-.141-2.095-.11-3.141.198-6.677.43-13.353.629-20.03.073-2.46.073-4.922.133-7.383.021-.855-.086-1.727.6-2.464,1.794-1.929,3.575-3.871,5.288-5.871.6-.701,2.485-.335,1.845-1.878-.206-.498-1.557-.505-2.369-.78-.311-.106-.581-.333-.865-.503.003-.578.271-1.058.792-1.218,2.898-.888,3.452-3.283,3.649-5.795.094-1.204-.295-2.437-.35-3.662-.073-1.623-.997-2.458-2.354-3.166-2.485-1.297-2.675-1.43-1.931-3.904.431-1.435-.249-2.142-.623-3.26-.735-2.193-1.792-3.64-4.05-4.343-1.689-.526-2.61-1.737-2.008-3.668.156-.499.213-1.033.276-1.556.211-1.749.407-3.458-2.304-3.158-.352.039-.867-.622-.66-1.21.229-.65.657-1.232.866-1.885.541-1.697-.167-3.174-1.272-4.305-.918-.94-2.238-.883-3.419-.232Z"></path><path class="cls-1" d="M1545.159,565.043c.495,21.636-16.278,39.967-38.344,42.363-7.304.793-14.441.29-21.306-2.265-16.315-6.073-26.103-17.806-27.985-35.057-1.826-16.733,4.629-30.317,18.704-39.81,14.978-10.101,35.945-9.951,50.797.322,11.971,8.281,17.92,19.912,18.134,34.446ZM1501.496,587.273c8.554-.035,15.71-4.864,18.89-12.785,1.824-4.544,2.043-9.27,1.15-14.007-1.422-7.547-7.313-16.19-18.919-17.038-10.656-.779-17.792,5.716-20.617,13.286-1.244,3.334-1.838,6.797-1.493,10.353,1.357,13.97,11.879,20.593,20.989,20.192Z"></path><path class="cls-1" d="M1840.142,535.244c-3.885,5.092-8.224,10.098-12.433,15.049-2.148-.443-3.341-1.839-4.801-2.769-4.259-2.712-8.926-4.219-13.925-4.423-11.635-.474-20.45,7.727-22.007,19.166-.476,3.492-.272,6.995.771,10.437,2.675,8.823,8.699,13.843,17.645,15.316,4.564.752,9.114.219,13.484-1.51,1.999-.791,3.276-1.892,3.037-4.278-.157-1.567.005-3.162-.06-4.741-.08-1.968-.442-2.332-2.599-2.373-3.695-.069-7.392-.008-11.087-.078-1.743-.033-2.261-.532-2.279-2.159-.046-4.041-.051-8.084.002-12.125.023-1.743.448-2.1,2.226-2.196,1.053-.057,2.111-.033,3.167-.033,8.976-.002,17.952,0,26.928-.002,5.6-.001,5.332-.373,5.328,5.551-.006,8.787-.001,17.574-.001,26.361,0,.527-.071,1.065.011,1.58.386,2.432-.858,3.89-2.726,5.231-6.682,4.795-14.037,8.033-22.104,9.529-9.141,1.696-18.206,1.382-27.087-1.642-17.094-5.821-27.732-20.708-28.131-38.717-.49-22.096,15.227-39.638,35.937-42.795,14.03-2.138,26.945.388,38.463,8.947.84.624,1.748,1.209,2.242,2.674Z"></path><path class="cls-1" d="M1691.901,565.015c0-11.249,0-22.499,0-33.748,0-1.23-.026-2.462.015-3.691.087-2.592.368-2.841,3.166-2.942.527-.019,1.056-.008,1.584-.008,18.659,0,37.318-.001,55.978.003,1.055,0,2.111.021,3.165.077.999.053,1.671.586,1.678,1.607.038,5.271.056,10.542.018,15.812-.007.961-.621,1.62-1.67,1.654-1.407.045-2.814.072-4.222.073-10.386.006-20.772,0-31.157.007-1.407,0-2.815.032-4.221.079-1.037.035-1.671.651-1.696,1.633-.072,2.809-.098,5.623-.033,8.432.035,1.515.715,2.078,2.369,2.169,1.229.067,2.463.036,3.696.036,9.154.002,18.307,0,27.461.004,1.232,0,2.465-.002,3.695.061,1.254.064,1.9.817,1.906,2.035.023,4.569.013,9.138.011,13.707,0,.172-.049.346-.088.516-.172.749-.61,1.3-1.388,1.359-1.4.105-2.807.155-4.211.157-9.153.013-18.307.002-27.461.011-1.407.001-2.815.03-4.219.107-.986.054-1.594.613-1.713,1.618-.062.522-.117,1.05-.108,1.574.184,11.37-1.737,9.469,9.255,9.588,9.505.103,19.011.021,28.517.022,1.232,0,2.466-.022,3.696.031,1.784.077,2.32.502,2.331,2.101.035,5.096.009,10.193-.029,15.289-.007.992-.583,1.624-1.61,1.687-1.052.065-2.109.08-3.164.08-18.835.004-37.67.003-56.506.003-.704,0-1.409.017-2.112-.008-2.672-.096-2.841-.272-2.922-3.167-.034-1.229-.009-2.461-.009-3.691,0-11.425,0-22.85,0-34.275Z"></path><path class="cls-1" d="M1885.957,524.626c8.981,0,17.963-.003,26.944.003,1.408,0,2.82-.012,4.224.074.981.061,1.636.628,1.638,1.673.012,5.273.016,10.546-.019,15.819-.007,1.032-.718,1.557-1.704,1.599-1.406.06-2.816.058-4.224.059-10.39.004-20.781,0-31.171.004-1.408,0-2.818.003-4.225.049-.972.031-1.733.465-1.753,1.527-.057,2.987-.077,5.975-.043,8.962.011.963.542,1.667,1.601,1.715,1.406.064,2.814.093,4.221.095,8.629.008,17.258.004,25.888.004,1.057,0,2.113-.013,3.17.003,4.154.064,4.177.068,4.217,3.991.034,3.341.009,6.682.006,10.023,0,.527.005,1.056-.029,1.582-.105,1.631-.552,2.095-2.294,2.191-1.405.077-2.817.051-4.225.051-8.981.004-17.963-.004-26.944.009-1.405.002-2.812.055-4.213.153-.782.055-1.324.598-1.332,1.351-.037,3.334-.028,6.67.038,10.004.015.767.61,1.25,1.401,1.288,1.405.066,2.813.104,4.22.105,10.566.008,21.133.003,31.699.007,1.408,0,2.817.014,4.225.052,1.012.028,1.666.542,1.671,1.586.027,5.274.034,10.547.014,15.821-.004.99-.547,1.627-1.6,1.667-1.055.041-2.111.061-3.167.062-18.667.003-37.335.003-56.002,0-1.056,0-2.112-.02-3.168-.055-1.004-.034-1.65-.544-1.732-1.561-.085-1.049-.095-2.105-.095-3.159-.005-23.915-.004-47.83-.003-71.746,0-5.178-.247-5.01,4.765-5.008,1.409,0,2.818,0,4.227,0,7.925,0,15.85,0,23.774,0Z"></path><path class="cls-1" d="M1418.907,522.821c14.711.289,25.549,4.414,33.852,14.201.566.667,1.096,1.377,1.541,2.127.269.453.229,1.013-.193,1.437-.247.249-.514.481-.791.696-4.452,3.446-8.891,6.909-13.37,10.32-1.672,1.273-1.924,1.203-3.545-.337-.765-.727-1.478-1.51-2.258-2.219-4.872-4.432-10.63-6.083-17.088-5.148-5.768.836-10.176,3.951-13.007,8.957-4.594,8.12-4.668,16.536-.197,24.66,5.473,9.944,18.356,12.633,27.938,6.159,2.053-1.387,3.84-3.082,5.474-4.937.788-.895,1.614-1.289,2.714-.505,4.729,3.368,9.479,6.707,14.191,10.099,1.075.774,1.102,1.492.186,2.686-6.094,7.945-13.784,13.472-23.73,15.581-8.246,1.749-16.506,1.863-24.499-.901-16.498-5.705-26.068-17.326-28.41-34.648-1.417-10.479.594-20.34,6.482-29.197,8.719-13.116,21.459-18.645,34.71-19.032Z"></path><path class="cls-1" d="M1623.024,565.562c0-11.948-.003-23.896.005-35.844,0-1.228.013-2.461.125-3.683.07-.764.631-1.239,1.399-1.284,1.403-.081,2.809-.119,4.214-.12,4.927-.003,9.854.012,14.781.034,1.247.006,1.97.622,1.994,1.911.029,1.581.047,3.162.047,4.743.003,16.692.008,33.384-.001,50.076-.003,5.035-.147,4.856,4.948,4.849,9.854-.012,19.708-.004,29.562-.002,1.056,0,2.112.005,3.167.03,1.242.029,1.976.634,1.997,1.917.031,1.932.034,3.865.036,5.798.003,3.163.037,6.326-.023,9.488-.045,2.361-.328,2.576-2.857,2.671-.703.026-1.408.009-2.111.009-17.421,0-34.841,0-52.262,0-.528,0-1.056.009-1.584-.005q-3.354-.085-3.431-3.692c-.021-1.054-.005-2.108-.005-3.163,0-11.245,0-22.49,0-33.736Z"></path><path class="cls-1" d="M1554.141,565.4c0-11.594,0-23.188.001-34.782,0-1.23-.025-2.461.034-3.688.084-1.766.469-2.21,2.152-2.255,2.637-.07,5.277-.044,7.916-.047,3.167-.004,6.333,0,9.5.008,2.324.006,2.945.211,2.924,3.138-.035,4.743-.005,9.486-.005,14.229,0,12.824-.002,25.647.004,38.471,0,1.404.035,2.809.091,4.211.032.793.49,1.34,1.276,1.4,1.399.108,2.805.149,4.209.151,9.324.012,18.648.005,27.972.008,1.407,0,2.815-.002,4.222.039,1.288.038,1.882.809,1.898,2.029.033,2.459.034,4.918.034,7.378,0,2.811.002,5.621-.036,8.432-.017,1.226-.662,1.949-1.932,1.997-.879.033-1.759.037-2.638.037-17.769.002-35.537.002-53.305-.002-.879,0-1.758-.029-2.636-.072-1.057-.052-1.564-.711-1.612-1.685-.069-1.402-.063-2.809-.064-4.213-.004-11.594-.002-23.188-.002-34.782Z"></path><path class="cls-1" d="M237.899,68.567c-1.767-.135-2.885-1.345-4.17-2.165-5.478-3.498-10.945-7.016-16.331-10.653-1.891-1.277-3.435-1.197-5.285.039-5.695,3.807-11.456,7.517-17.222,11.215-.955.613-1.763,1.73-3.295,1.308-.101-1.612.611-3.027,1.089-4.484,1.967-6,3.979-11.985,5.924-17.993.914-2.824.839-3.139-1.465-4.887-4.758-3.611-9.581-7.136-14.359-10.72-1.379-1.035-2.697-2.151-3.938-3.145.352-1.188,1.093-1.087,1.767-1.087,6.505-.006,13.01.021,19.514-.015,4.227-.023,4.72-.347,6.184-4.245,2.281-6.075,4.487-12.178,6.722-18.271.418-1.141.604-2.396,1.894-3.465.517,1.282,1.067,2.453,1.47,3.673,2.091,6.329,4.112,12.681,6.226,19.002,1.008,3.014,1.359,3.271,4.51,3.295,6.68.051,13.361-.002,20.042.041.975.006,2.059-.403,2.933.419.231,1.174-.781,1.459-1.424,1.943-4.348,3.279-8.721,6.525-13.086,9.782-.986.736-1.993,1.444-2.947,2.219-2.784,2.261-3.031,2.994-1.892,6.296,2.058,5.969,4.194,11.912,6.246,17.883.436,1.27,1.232,2.502.892,4.013Z"></path><path class="cls-1" d="M313.832,79.253c-3.53-2.293-7.132-4.485-10.564-6.916-2.166-1.534-3.971-1.637-6.182-.062-3.421,2.437-7.03,4.612-10.494,6.856-1.315-.784-.557-1.653-.331-2.325,1.232-3.659,2.53-7.297,3.857-10.923.628-1.718.283-3.072-1.199-4.161-2.125-1.563-4.235-3.145-6.345-4.728-1.388-1.041-2.764-2.097-4.074-3.092.521-1.411,1.506-1.056,2.288-1.064,3.695-.039,7.391-.052,11.086-.021,1.838.015,2.972-.823,3.525-2.539,1.132-3.509,2.287-7.01,3.401-10.524.318-1.005.517-2.051,1.794-2.726,1.534,4.156,3.156,8.217,4.519,12.362.857,2.606,2.421,3.598,5.103,3.469,3.161-.152,6.334-.062,9.501-.045.832.004,1.764-.198,2.525,1.001-2.765,2.077-5.553,4.171-8.341,6.267-.843.634-1.688,1.267-2.528,1.904-1.092.827-1.538,1.862-1.085,3.222.61,1.832,1.191,3.673,1.78,5.512.847,2.643,1.691,5.287,2.536,7.931-.257.201-.514.402-.771.602Z"></path><path class="cls-1" d="M150.4,53.698c-1.478,1.173-2.958,2.373-4.466,3.536-1.254.967-2.531,1.905-3.814,2.833-5.238,3.785-4.093,3.497-2.571,8.131,1.041,3.171,2.194,6.305,3.276,9.462.105.307.062.665.092,1.059-.946.693-1.586-.173-2.212-.567-2.976-1.877-5.973-3.735-8.826-5.788-2.129-1.532-3.958-1.769-6.186-.124-2.826,2.087-5.862,3.891-8.822,5.793-.686.441-1.324,1.121-2.446.724.062-1.925.931-3.652,1.505-5.447.856-2.678,1.673-5.37,2.635-8.01.514-1.411.108-2.377-.985-3.202-2.528-1.908-5.086-3.777-7.586-5.721-1.085-.844-2.468-1.392-3.06-2.766.534-1.014,1.476-.788,2.294-.793,3.346-.02,6.693-.035,10.038.022,2.244.039,3.561-.921,4.284-3.085,1.28-3.831,2.756-7.597,4.145-11.392.173-.474.321-1.122.947-.906.405.14.819.652.964,1.085,1.281,3.832,2.53,7.675,3.73,11.533.61,1.962,1.847,2.803,3.906,2.76,3.52-.074,7.044-.025,10.566-.003.847.005,1.776-.208,2.593.868Z"></path><path class="cls-1" d="M85.025,108.728c-2.36-1.471-4.511-2.597-6.406-4.052-2.023-1.553-3.727-1.39-5.643.088-1.382,1.066-2.923,1.927-4.4,2.868-.553.353-1.091.81-2.162.325.745-2.412,1.378-4.924,2.308-7.32.713-1.837.15-2.948-1.295-4.03-1.925-1.441-4.041-2.673-5.75-4.635,1.118-1.206,2.394-.636,3.502-.727,1.045-.086,2.103.001,3.155-.024,3.253-.079,3.267-.08,4.49-3.25.756-1.959,1.446-3.943,2.213-5.897.096-.244.489-.524.736-.516.279.009.709.267.796.515.814,2.309,1.646,4.617,2.313,6.97.469,1.655,1.504,2.207,3.093,2.181,1.928-.031,3.858-.024,5.786.019.632.014,1.389-.269,2.019.794-1.483,1.808-3.69,2.897-5.512,4.415-2.155,1.796-2.101,1.768-1.374,4.396.681,2.463,2.177,4.716,2.132,7.88Z"></path><path class="cls-1" d="M339.139,91.382c2.532-.339,5.107-.128,7.655-.144,1.614-.01,2.658-.527,3.123-2.173.524-1.857,1.211-3.667,1.808-5.503.271-.834.446-1.713,1.543-2.271,1.331,2.009,1.754,4.405,2.646,6.589,1.331,3.26,1.29,3.288,4.999,3.342,1.923.028,3.847.005,5.746.005.48,1.895-1.067,2.227-1.926,2.881-6.429,4.894-5.498,3.19-3.311,10.65.329,1.122,1.273,2.18.25,3.757-2.205-1.409-4.449-2.752-6.59-4.242-1.52-1.057-2.85-.978-4.328.039-2.159,1.486-4.386,2.873-7.102,4.64.244-3.276,1.495-5.583,2.257-8.014.802-2.558.758-2.797-1.328-4.463-1.783-1.424-3.589-2.819-5.37-4.245-.086-.069-.033-.31-.072-.847Z"></path><path class="cls-1" d="M345.268,607.821c-.35,2.602-1.436,5.314-3.871,7.31-2.423,1.986-5.873,2.08-8.858.296-.667-.399-.874-1.077-.575-1.806,1.727-4.202,3.457-8.404,5.229-12.587.281-.663.887-1.094,1.68-.945,3.66.69,6.461,3.889,6.395,7.733Z"></path><path class="cls-1" d="M233.375,585.851c-.071-3.357.475-5.709,1.991-7.737,2.687-3.595,7.416-3.147,9.305.933,1.656,3.576,1.223,7.149-.619,10.535-1.07,1.966-2.761,3.093-5.124,2.964-2.61-.143-4.144-1.666-4.951-3.978-.395-1.131-.526-2.354-.603-2.717Z"></path><path class="cls-1" d="M162.431,582.735c-.13,2.676-3.291,3.978-5.401,3.531-.147-.031-.329-.161-.39-.294-.79-1.733-1.274-3.532-1.083-5.458.016-.16.11-.388.235-.451,1.424-.718,2.879-1.196,4.484-.556,1.33.53,2.215,1.825,2.155,3.228Z"></path><path class="cls-1" d="M137.645,593.97c-1.184.772-2.511,1.021-3.871,1.084-.239-.257-.629-.481-.633-.711-.045-2.401-.028-4.803-.028-7.231,2.202,1.495,2.879,2.522,4.531,6.858Z"></path><path class="cls-1" d="M315.871,593.282c0,2.553.051,4.199-.011,5.84-.111,2.965-.657,3.271-3.375,2.089-.913-.397-1.458-.96-.909-1.927,1.064-1.876,2.113-3.781,4.295-6.002Z"></path><path class="cls-2" d="M338.856,275.384c-.981.776-1.868.586-2.699.587-10,.012-19.999.013-29.999-.024-.586-.002-1.451.332-1.709-.663-.215-.828.451-1.264.854-1.786.942-1.221,2.278-1.497,3.748-1.492,4.912.016,9.824-.01,14.736-.01,3.509,0,7.017.016,10.526.022,2.408.004,3.758,1.286,4.543,3.365Z"></path><path class="cls-2" d="M321.11,280.661c-2.095,0-4.192.032-6.286-.018-.678-.016-1.37-.194-2.018-.409-.288-.095-.643-.446-.675-.716-.028-.233.307-.612.574-.752.445-.234.962-.46,1.451-.464,4.889-.033,9.778-.031,14.668-.003.496.003,1.019.181,1.476.391.29.133.622.453.673.736.039.218-.283.672-.524.74-.824.234-1.68.457-2.529.481-2.268.064-4.54.022-6.81.022v-.008Z"></path><path class="cls-2" d="M72.748,214.609c-.034.688-.174,1.391-.084,2.063.318,2.37,1.036,3.077,3.286,3.242,2.093.154,4.103.09,6.171-.71,2.899-1.122,5.84-2.127,8.632-3.511-3.682,2.188-7.165,4.776-11.463,5.731-1.006.224-2.022.49-3.043.54-.841.041-1.74-.083-2.534-.359-1.555-.541-2.655-1.638-3.022-3.284-.401-1.8.523-2.943,2.057-3.712Z"></path><path class="cls-2" d="M78.024,209.333c-1.234,2.777-2.467,4.011-5.383,5.385,1.421-2.168,3.458-3.721,5.383-5.385Z"></path><path class="cls-2" d="M127.625,247.496c1.308.294,2.551.691,3.19,2.033,0,0,.084-.119.084-.12-.414.326-.832.375-1.239-.005-.704-.659-1.402-1.324-2.103-1.987,0,0,.067.079.067.079Z"></path><path class="cls-2" d="M98.119,269.611c-.386-.388-.772-.776-1.159-1.164.605.171,1.112.439,1.159,1.164Z"></path><path class="cls-2" d="M97.065,268.552c-.388-.386-.775-.771-1.163-1.157.688.085.995.551,1.163,1.157Z"></path><path class="cls-2" d="M103.215,263.362c-.085-.228-.171-.455-.256-.683.087.092.232.175.247.277.021.155-.048.322-.085.489-.005.005.094-.084.094-.084Z"></path><path class="cls-2" d="M96.006,267.496c-.388-.387-.776-.774-1.164-1.161.684.091,1.072.478,1.164,1.161Z"></path><polygon class="cls-2" points="127.558 247.417 127.541 247.271 127.627 247.499 127.558 247.417"></polygon><path class="cls-2" d="M308.914,439.583c.683,4.681.613,19.674-.113,23.532-1.531.639-3.101.197-4.656.107-1.876-.108-3.502.33-4.539,2.033-.704,1.156-1.693,1.651-3.041,1.709-1.763.075-3.52.265-4.81,1.738-2.207,2.519-4.793.899-7.253.625-2.351-2.565-5.222-1.283-7.291-.165-2.353,1.272-4.114,1.702-6.14-.046-.515-.445-.978-.14-1.465-.162-.736-.034-1.647-.285-1.394-1.067.744-2.3-1.653-3.732-1.378-5.922.262-2.08.136-4.209.174-6.316.107-5.971.182-11.943.327-17.913.058-2.397.367-2.709,2.869-2.519,4.732.36,9.455.836,14.177,1.306,6.471.644,12.938,1.327,19.407,1.993,1.747.18,3.511.279,5.126,1.066Z"></path><path class="cls-2" d="M351.025,413.159c-5.975-.016-9.969-3.861-10.013-9.642-.049-6.416,4.027-10.517,10.37-10.433,5.836.077,9.866,4.404,9.797,10.518-.064,5.631-4.251,9.572-10.153,9.556ZM351.197,395.05c-1.328,1.676-1.005,3.588-.772,5.466.034.271.404.661.658.693.213.027.663-.363.696-.61.254-1.884.487-3.784-.582-5.549ZM358.167,399.498q-3.183.736-5.251,3.164c2.096-.893,3.647-1.602,5.251-3.164Z"></path><path class="cls-2" d="M325.064,460.225c-.171-2.551,1.01-5.244.218-7.941-.794-2.707-.511-5.448-.187-8.21.498.094,1.011.064,1.079.224,1.775,4.154,4.629,7.775,6.004,12.122.451,1.427.209,1.712-1.535,1.309-1.098-.253-1.942-.457-2.669.709-.311.499-1.3.359-1.534,1.18-.135.473-.326,1.023-1.376.608Z"></path><path class="cls-2" d="M362.656,414.049c0-5.61.003-11.221-.002-16.831-.001-1.23-.022-2.461-.049-3.691-.029-1.317-.812-1.84-2.033-1.855-1.585-.02-3.17-.03-4.755-.031-5.274-.004-10.549-.001-15.821-.286h23.025c.022,7.675-.001,15.186-.365,22.695Z"></path><path class="cls-2" d="M348.817,369.357c1.054,1.794.967,3.636.687,5.484-.068.45-.34.631-.703.435-.274-.148-.671-.37-.708-.606-.276-1.799-.352-3.592.723-5.314Z"></path><path class="cls-2" d="M345.348,372.418c-.096.805-.179,1.653-.304,2.495-.068.455-.367.587-.787.394-.143-.066-.353-.132-.395-.247-.654-1.825-.713-3.653.081-5.456.049-.112.275-.147.419-.217.425-.204.665-.063.716.422.089.852.177,1.704.27,2.608Z"></path><path class="cls-2" d="M356.827,372.813c.103-1.035.17-1.901.282-2.762.062-.475.344-.61.733-.413.149.075.37.124.428.247.87,1.824.846,3.645-.107,5.433-.048.09-.332.089-.499.07-.138-.016-.362-.1-.381-.19-.182-.84-.327-1.687-.456-2.384Z"></path><path class="cls-2" d="M244.873,473.704c-.538.312-1.605,1.017-2.755,1.538-.304.138-.876-.27-1.302-.475-.112-.054-.16-.281-.198-.437-.2-.823.497-.8.913-.8,1.178,0,2.356.116,3.342.174Z"></path><path class="cls-2" d="M352.489,371.832c.096-.545.233-1.376.403-2.2.014-.067.246-.13.373-.124.157.008.419.054.448.145.591,1.81.829,3.633.038,5.451-.041.094-.279.136-.426.14-.144.004-.362-.024-.424-.119-.611-.931-.28-1.99-.412-3.293Z"></path><path class="cls-2" d="M341.717,384.954c.049.793-.183,1.236-.737,1.308-.688.088-.771-.511-.756-.976.015-.48.098-1.024.35-1.411.223-.342,1.107.59,1.143,1.08Z"></path><path class="cls-2" d="M356.51,422.102c.559,1.961.572,3.481-.015,5.494-.631-2.018-.642-3.538.015-5.494Z"></path><path class="cls-2" d="M353.02,426.702c.07-1.2.141-2.4.247-4.213.095,1.81.158,3.011.221,4.213-.156,0-.312,0-.469,0Z"></path><path class="cls-2" d="M341.836,427.485c-.826-1.865-.317-3.333-.201-4.803.794,1.47.543,2.939.201,4.803Z"></path><path class="cls-2" d="M349.002,421.538c.561,2.503.714,4.019.172,5.772-.746-1.66-.341-3.153-.172-5.772Z"></path><path class="cls-2" d="M361.318,386.309c-.404.11-.742-.021-.8-.425-.072-.494-.057-1.088.63-1.108.194-.006.456.436.589.719.187.398.004.69-.419.815Z"></path><path class="cls-2" d="M345.834,385.022c.045.557-.12,1.021-.643,1.26-.354.162-.614-.032-.712-.47-.185-.821.273-1.752.75-1.526.262.124.41.486.606.736Z"></path><path class="cls-2" d="M356.606,385.934c.131-.271.2-.615.409-.795.323-.277.645-.119.655.316.007.278-.165.56-.257.84-.269-.12-.538-.24-.807-.362Z"></path><path class="cls-2" d="M353.896,385.122c-.176.329-.397.742-.618,1.155-.182-.235-.489-.453-.521-.707-.075-.595-.131-1.279.684-1.445.07-.014.258.554.455.997Z"></path><path class="cls-2" d="M348.876,384.422c.271.332.518.507.575.732.119.464.135.967-.455,1.161-.077.025-.35-.217-.344-.324.03-.479.128-.954.223-1.569Z"></path><path class="cls-2" d="M335.878,457.37c.553.066.906.392.876.929-.013.222-.359.426-.553.638-.103-.112-.23-.21-.304-.338-.259-.45-.324-.901.057-1.329l-.076.099Z"></path><path class="cls-2" d="M335.954,457.271c-.408.234-.629.133-.644-.303,0-.008.244-.071.29-.024.117.119.187.284.277.429.002-.002.077-.101.077-.101Z"></path></svg>